<svg xmlns="http://www.w3.org/2000/svg" viewBox="0 0 128.44 31.41"><defs><style>.cls-1{fill:#7fccdd;}.cls-2{fill:#f5d284;}.cls-3{fill:#fafdff;}</style></defs><g id="Lager_2" data-name="Lager 2"><g id="Footer"><g id="logo-dark"><polygon class="cls-1" points="5.73 25.68 5.73 5.73 25.68 5.73 25.68 5.73 31.41 0 0 0 0 31.41 5.73 25.68"/><path class="cls-2" d="M13.08,24.48a8.06,8.06,0,1,1,11.4-11.4L28,9.55A13,13,0,0,0,9.55,28Z"/><path class="cls-3" d="M16.2,17.22h1.9v1.46a2.77,2.77,0,0,1,1.14-1.25A3.45,3.45,0,0,1,21,17c1.44,0,2.33.51,2.66,1.5a2.67,2.67,0,0,1,1.16-1.09A3.38,3.38,0,0,1,26.42,17a3.24,3.24,0,0,1,1.92.48,2.43,2.43,0,0,1,.87,1.38,10.15,10.15,0,0,1,.22,2.39v4H27.51V21.24a5.32,5.32,0,0,0-.29-2,1.12,1.12,0,0,0-1.12-.61,2,2,0,0,0-1.68.75,3.15,3.15,0,0,0-.58,2v4h-1.9V21a9.66,9.66,0,0,0-.07-1.4,1.08,1.08,0,0,0-.39-.72,1.62,1.62,0,0,0-1-.26,2,2,0,0,0-1.15.37,2.59,2.59,0,0,0-.86,1,2.87,2.87,0,0,0-.33,1.35v4H16.2Z"/><path class="cls-3" d="M38.22,15.34a1.25,1.25,0,0,1-.37-.92,1.09,1.09,0,0,1,.37-.84,1.26,1.26,0,0,1,.91-.36,1.22,1.22,0,0,1,.9.36,1.09,1.09,0,0,1,.37.84,1.28,1.28,0,0,1-.36.92,1.24,1.24,0,0,1-.91.37A1.27,1.27,0,0,1,38.22,15.34Zm0,1.88h2v8.09h-2Z"/><path class="cls-3" d="M49,17.22h1.86l0,1.48a2.8,2.8,0,0,1,1.06-1.21A3,3,0,0,1,53.58,17a3.07,3.07,0,0,1,1.92.52A2.52,2.52,0,0,1,56.4,19a10.75,10.75,0,0,1,.23,2.43v3.9H54.72V21.47a5.89,5.89,0,0,0-.3-2.21,1.2,1.2,0,0,0-1.23-.68,2.13,2.13,0,0,0-1.07.32,2.53,2.53,0,0,0-.91,1,2.8,2.8,0,0,0-.36,1.44v4H49Z"/><path class="cls-3" d="M65.43,15.34a1.29,1.29,0,0,1-.37-.92,1.13,1.13,0,0,1,.37-.84,1.28,1.28,0,0,1,.92-.36,1.25,1.25,0,0,1,.9.36,1.09,1.09,0,0,1,.37.84,1.28,1.28,0,0,1-.36.92,1.25,1.25,0,0,1-.91.37A1.29,1.29,0,0,1,65.43,15.34Zm-.05,1.88h2v8.09h-2Z"/><path class="cls-3" d="M76.16,17.22h1.9v1.46a2.77,2.77,0,0,1,1.14-1.25A3.45,3.45,0,0,1,80.92,17c1.44,0,2.33.51,2.66,1.5a2.73,2.73,0,0,1,1.16-1.09A3.38,3.38,0,0,1,86.38,17a3.24,3.24,0,0,1,1.92.48,2.43,2.43,0,0,1,.87,1.38,10.15,10.15,0,0,1,.22,2.39v4H87.47V21.24a5.32,5.32,0,0,0-.29-2,1.11,1.11,0,0,0-1.12-.61,2,2,0,0,0-1.68.75,3.15,3.15,0,0,0-.57,2v4H81.9V21a9.66,9.66,0,0,0-.07-1.4,1.11,1.11,0,0,0-.38-.72,1.67,1.67,0,0,0-1-.26,2,2,0,0,0-1.15.37,2.68,2.68,0,0,0-.86,1,2.87,2.87,0,0,0-.33,1.35v4H76.16Z"/><path class="cls-3" d="M99.55,25a3.83,3.83,0,0,1-1.48-1.48,4.38,4.38,0,0,1-.56-2.24A4.72,4.72,0,0,1,98,19a3.47,3.47,0,0,1,1.38-1.48,4.11,4.11,0,0,1,2.11-.53,3.41,3.41,0,0,1,1.32.25,3.6,3.6,0,0,1,1,.6,2.09,2.09,0,0,1,.57.72l0-1.36h1.82v8.09h-1.8l0-1.43A2.7,2.7,0,0,1,103.34,25a3.37,3.37,0,0,1-1.78.48A4,4,0,0,1,99.55,25Zm4-1.76a2.47,2.47,0,0,0,.69-1.82v-.12a2.87,2.87,0,0,0-.32-1.36,2.34,2.34,0,0,0-.86-.93,2.23,2.23,0,0,0-1.2-.34,2.14,2.14,0,0,0-1.74.73,2.81,2.81,0,0,0-.62,1.9,2.88,2.88,0,0,0,.61,1.91,2.16,2.16,0,0,0,1.75.73A2.26,2.26,0,0,0,103.57,23.2Z"/><path class="cls-3" d="M115.14,12.36H117v13h-1.89Z"/><path class="cls-1" d="M126.28,25.12a1.19,1.19,0,0,1-.37-.89,1.22,1.22,0,0,1,.36-.9,1.29,1.29,0,0,1,1.81,0,1.27,1.27,0,0,1-1.8,1.79Z"/></g></g></g></svg>