<svg xmlns="http://www.w3.org/2000/svg" viewBox="0 0 195.76 195.76"><defs><style>.cls-1{fill:#7fccdc;}.cls-2{fill:#f6d384;}</style></defs><g id="Lager_2" data-name="Lager 2"><g id="Lager_1-2" data-name="Lager 1"><path class="cls-1" d="M60.34,60.34v75.08h75.08V60.34Zm65.14,64.45H69.76V69.07h55.72Z"/><path class="cls-2" d="M97.62,69.07a27.86,27.86,0,1,0,27.86,27.86A27.86,27.86,0,0,0,97.62,69.07Zm0,46.16a18.3,18.3,0,1,1,18.3-18.3A18.3,18.3,0,0,1,97.62,115.23Z"/><polyline class="cls-1" points="113.5 106.21 81.75 106.21 97.62 78.63"/><path class="cls-2" d="M43.8,35h0L28.36,28.67l6.2,15.06a7.69,7.69,0,0,0,.58,1.42h0A7.14,7.14,0,1,0,43.8,35Z"/><path class="cls-2" d="M151.35,160.77h0l15.45,6.32L160.59,152a6.85,6.85,0,0,0-.59-1.42h0a7.14,7.14,0,1,0-8.65,10.16Z"/><path class="cls-2" d="M160.46,44.11h0l6.32-15.44-15.06,6.2a6.83,6.83,0,0,0-1.42.58h0a7.14,7.14,0,1,0,10.15,8.66Z"/><path class="cls-2" d="M34.69,151.66h0L28.36,167.1l15.06-6.2a7.09,7.09,0,0,0,1.42-.59h0a7.14,7.14,0,1,0-10.15-8.65Z"/><path class="cls-2" d="M104.33,15.39h0L97.88,0,91.62,15A7,7,0,0,0,91,16.45h0a7.14,7.14,0,1,0,13.3-1.06Z"/><path class="cls-2" d="M91.44,180.37h0l6.45,15.38,6.27-15a6.76,6.76,0,0,0,.59-1.42h0a7.14,7.14,0,1,0-13.3,1.06Z"/><path class="cls-2" d="M180.37,104.33h0l15.38-6.45-15-6.26a6.76,6.76,0,0,0-1.42-.59h0a7.14,7.14,0,1,0,1.06,13.3Z"/><path class="cls-2" d="M15.39,91.44h0L0,97.88l15,6.27a7,7,0,0,0,1.42.59h0a7.14,7.14,0,1,0-1.06-13.3Z"/></g></g></svg>