<svg xmlns="http://www.w3.org/2000/svg" viewBox="0 0 190.98 46.7"><defs><style>.cls-1{fill:#7fccdd;}.cls-2{fill:#f5d284;}.cls-3{fill:#4a4b58;}</style></defs><g id="Lager_2" data-name="Lager 2"><g id="Header"><g id="logo-bright"><polygon class="cls-1" points="8.52 38.18 8.52 8.52 38.18 8.52 38.18 8.52 46.7 0 0 0 0 46.7 8.52 38.18"/><path class="cls-2" d="M19.44,36.39a12,12,0,0,1,17-16.95l5.25-5.24A19.4,19.4,0,0,0,14.2,41.64Z"/><path class="cls-3" d="M24.09,25.61h2.83v2.17a4,4,0,0,1,1.69-1.86,5.08,5.08,0,0,1,2.55-.63q3.23,0,3.95,2.23a4.2,4.2,0,0,1,1.73-1.63,5.21,5.21,0,0,1,2.44-.6,4.71,4.71,0,0,1,2.85.72,3.48,3.48,0,0,1,1.3,2,15.16,15.16,0,0,1,.33,3.54v6H40.9V31.58a7.65,7.65,0,0,0-.43-3,1.66,1.66,0,0,0-1.66-.92,2.93,2.93,0,0,0-2.5,1.12,4.65,4.65,0,0,0-.86,2.92v6H32.63V31.16a14.59,14.59,0,0,0-.11-2.07A1.68,1.68,0,0,0,32,28a2.34,2.34,0,0,0-1.52-.4,3,3,0,0,0-1.72.55,4,4,0,0,0-1.28,1.48,4.21,4.21,0,0,0-.49,2v6H24.09Z"/><path class="cls-3" d="M56.83,22.8a1.82,1.82,0,0,1-.55-1.36,1.67,1.67,0,0,1,.55-1.26,2,2,0,0,1,2.7,0,1.7,1.7,0,0,1,.55,1.26,1.85,1.85,0,0,1-.54,1.36,1.8,1.8,0,0,1-1.35.55A1.84,1.84,0,0,1,56.83,22.8Zm-.08,2.81h2.93v12H56.75Z"/><path class="cls-3" d="M72.78,25.61h2.78l0,2.2A4.21,4.21,0,0,1,77.15,26a5.21,5.21,0,0,1,5.37.07,3.72,3.72,0,0,1,1.34,2.16,15.43,15.43,0,0,1,.34,3.61v5.79H81.37V31.92a8.7,8.7,0,0,0-.45-3.29,1.78,1.78,0,0,0-1.83-1,3.16,3.16,0,0,0-1.6.49,3.87,3.87,0,0,0-1.35,1.4,4.26,4.26,0,0,0-.53,2.15v6H72.78Z"/><path class="cls-3" d="M97.3,22.8a1.83,1.83,0,0,1-.56-1.36,1.68,1.68,0,0,1,.56-1.26,1.92,1.92,0,0,1,1.36-.52,1.88,1.88,0,0,1,1.33.52,1.67,1.67,0,0,1,.55,1.26A1.89,1.89,0,0,1,100,22.8a1.8,1.8,0,0,1-1.35.55A1.82,1.82,0,0,1,97.3,22.8Zm-.08,2.81h2.93v12H97.22Z"/><path class="cls-3" d="M113.25,25.61h2.82v2.17a4.08,4.08,0,0,1,1.69-1.86,5.14,5.14,0,0,1,2.56-.63c2.15,0,3.46.76,4,2.23A4.2,4.2,0,0,1,126,25.89a5.21,5.21,0,0,1,2.44-.6,4.74,4.74,0,0,1,2.85.72,3.48,3.48,0,0,1,1.3,2,15.16,15.16,0,0,1,.33,3.54v6h-2.86V31.58a7.65,7.65,0,0,0-.43-3,1.66,1.66,0,0,0-1.66-.92,3,3,0,0,0-2.51,1.12,4.71,4.71,0,0,0-.85,2.92v6h-2.83V31.16a14.94,14.94,0,0,0-.1-2.07A1.65,1.65,0,0,0,121.1,28a2.31,2.31,0,0,0-1.52-.4,3,3,0,0,0-1.71.55,4,4,0,0,0-1.28,1.48,4.21,4.21,0,0,0-.49,2v6h-2.85Z"/><path class="cls-3" d="M148,37.12a5.81,5.81,0,0,1-2.2-2.2,6.57,6.57,0,0,1-.83-3.34,7.16,7.16,0,0,1,.72-3.3,5.27,5.27,0,0,1,2.06-2.2,6,6,0,0,1,3.14-.79,5.1,5.1,0,0,1,2,.37,5.5,5.5,0,0,1,1.55.9,2.87,2.87,0,0,1,.84,1.06l.05-2H158v12h-2.67l-.06-2.12a3.94,3.94,0,0,1-1.62,1.66,5,5,0,0,1-2.65.72A6,6,0,0,1,148,37.12Zm6-2.62a3.69,3.69,0,0,0,1-2.71V31.6a4.14,4.14,0,0,0-.47-2,3.45,3.45,0,0,0-1.28-1.39,3.37,3.37,0,0,0-1.78-.5,3.2,3.2,0,0,0-2.6,1.09A4.2,4.2,0,0,0,148,31.6a4.32,4.32,0,0,0,.9,2.85,3.2,3.2,0,0,0,2.61,1.08A3.39,3.39,0,0,0,154,34.5Z"/><path class="cls-3" d="M171.21,18.38H174V37.63h-2.8Z"/><path class="cls-1" d="M187.76,37.35a1.77,1.77,0,0,1-.55-1.32A1.89,1.89,0,1,1,191,36a1.76,1.76,0,0,1-.53,1.32,1.83,1.83,0,0,1-1.35.54A1.86,1.86,0,0,1,187.76,37.35Z"/></g></g></g></svg>